<svg version="1" xmlns="http://www.w3.org/2000/svg" width="933.333" height="933.333" viewBox="0 0 700.000000 700.000000"><path d="M134.1 74c-.8.5-1.3 321-.5 321 .2 0 2-3.2 3.9-7 15.5-30.8 43.1-58.5 75.5-75.8l7.4-4 .1-79.8v-79.9H271c45.8.1 65.8.9 77.5 3.1 2.1.4 3.6.7 14 2.5 5.6 1 11.8 2.6 25.5 6.6 14.2 4.1 33.4 13.1 45.9 21.5 10.9 7.3 15.5 11.1 25.3 20.9 15.4 15.5 25.7 31.3 35.3 54.4 4.6 11 11 35.7 12.1 46.5.3 2.5.7 5.5.9 6.7 2 9.1 2.7 50.4 1.2 67.3-.6 7-2.2 18-4.2 28.5-3.8 20.6-14 47.1-24.9 64.8-3.9 6.4-4.4 8.1-5 15.2-1.9 22-7.3 41.6-17.1 62.1-5.6 11.6-16.3 28.4-23.7 36.9-11.5 13.4-32.6 31.7-43.3 37.4-5 2.6-3.9 2.6 6.1 0 13-3.3 37.3-11.9 40.2-14.2.6-.5 1.2-.7 1.2-.4 0 1 25.9-12.6 35.8-18.7 47.8-29.7 84.9-72.2 104.8-120.3 9.5-22.8 17.3-52.3 19.9-74.8.4-3.3.9-7.1 1.1-8.5 2.1-12.8 2.1-62.6 0-80-.3-1.9-.7-5.9-1-8.8-.9-8.1-1.4-11.5-3.2-22.2-7-41.6-24.3-81.8-47.5-110.5-11.8-14.6-16.6-19.3-37.4-36.4-8.6-7-31.8-20.1-47.7-26.9-17.6-7.5-44.8-15.9-60.3-18.6-1.6-.3-5.5-1-8.5-1.6-7.5-1.5-21.2-3.4-31-4.5-10-1-14.4-1.4-25-2.1-12.4-.8-202.7-1.2-203.9-.4z"/><path d="M283.4 332.1c-48.7 4.7-91 34-112.4 77.8-5.6 11.5-10.7 27-11.7 35.6-.2 2.1-.7 4.3-1 4.8-1.4 2.3-1.4 29.8.1 39.2 2 13.6 2.3 14.8 5.6 24.5 12.2 36.6 36.9 64.6 72.5 82.2 6.3 3.2 17.6 7.5 21.5 8.3.8.2 3.3.8 5.5 1.4 2.2.6 5.7 1.3 7.9 1.7 2.1.3 4.8.8 6 1.1 3.9.9 29 1.1 35.4.2 8.1-1.1 12.3-1.9 14.4-2.5.9-.3 2.5-.7 3.6-.9 1-.2 6.1-1.7 11.3-3.5 44.9-15 80.7-55.6 90.4-102.4 4-19.7 3.8-45.6-.5-60.1-.5-1.7-1.1-4.1-1.4-5.5-1.3-7.3-9.9-27-16.1-37.1-7.2-11.6-21.3-27.3-31-34.6-2.7-2.1-5.2-4-5.5-4.4-1.2-1.4-12.8-8.3-20.8-12.3-10.8-5.4-27.7-10.9-37.1-12.1-1.4-.1-4.6-.6-7.1-1-6.8-1-21.6-1.2-29.6-.4zM133.2 590.4V635h2.7c21.6.4 88.1.4 88.1-.1 0-.3-2.8-1.9-6.2-3.5-22.2-10.5-45.9-29.6-62.5-50.4-5.1-6.4-18.3-26.9-18.3-28.4 0-.3-.8-1.9-1.9-3.7-1.9-3-1.9-2.6-1.9 41.5z"/></svg>