<?xml version="1.0" standalone="no"?>
<!DOCTYPE svg PUBLIC "-//W3C//DTD SVG 20010904//EN"
 "http://www.w3.org/TR/2001/REC-SVG-20010904/DTD/svg10.dtd">
<svg version="1.0" xmlns="http://www.w3.org/2000/svg"
 width="700.000000pt" height="700.000000pt" viewBox="0 0 700.000000 700.000000"
 preserveAspectRatio="xMidYMid meet">
<metadata>
Created by potrace 1.11, written by Peter Selinger 2001-2013
</metadata>
<g transform="translate(0.000000,700.000000) scale(0.100000,-0.100000)"
fill="#000000" stroke="none">
<path d="M1341 6260 c-8 -5 -13 -3210 -5 -3210 2 0 20 32 39 70 155 308 431
585 755 758 l74 40 1 798 0 799 505 0 c458 -1 658 -9 775 -31 21 -4 36 -7 140
-25 56 -10 118 -26 255 -66 142 -41 334 -131 459 -215 109 -73 155 -111 253
-209 154 -155 257 -313 353 -544 46 -110 110 -357 121 -465 3 -25 7 -55 9 -67
20 -91 27 -504 12 -673 -6 -70 -22 -180 -42 -285 -38 -206 -140 -471 -249
-648 -39 -64 -44 -81 -50 -152 -19 -220 -73 -416 -171 -621 -56 -116 -163
-284 -237 -369 -115 -134 -326 -317 -433 -374 -50 -26 -39 -26 61 0 130 33
373 119 402 142 6 5 12 7 12 4 0 -10 259 126 358 187 478 297 849 722 1048
1203 95 228 173 523 199 748 4 33 9 71 11 85 21 128 21 626 0 800 -3 19 -7 59
-10 88 -9 81 -14 115 -32 222 -70 416 -243 818 -475 1105 -118 146 -166 193
-374 364 -86 70 -318 201 -477 269 -176 75 -448 159 -603 186 -16 3 -55 10
-85 16 -75 15 -212 34 -310 45 -100 10 -144 14 -250 21 -124 8 -2027 12 -2039
4z"/>
<path d="M2834 3679 c-487 -47 -910 -340 -1124 -778 -56 -115 -107 -270 -117
-356 -2 -21 -7 -43 -10 -48 -14 -23 -14 -298 1 -392 20 -136 23 -148 56 -245
122 -366 369 -646 725 -822 63 -32 176 -75 215 -83 8 -2 33 -8 55 -14 22 -6
57 -13 79 -17 21 -3 48 -8 60 -11 39 -9 290 -11 354 -2 81 11 123 19 144 25 9
3 25 7 36 9 10 2 61 17 113 35 449 150 807 556 904 1024 40 197 38 456 -5 601
-5 17 -11 41 -14 55 -13 73 -99 270 -161 371 -72 116 -213 273 -310 346 -27
21 -52 40 -55 44 -12 14 -128 83 -208 123 -108 54 -277 109 -371 121 -14 1
-46 6 -71 10 -68 10 -216 12 -296 4z"/>
<path d="M1332 1096 l0 -446 27 0 c216 -4 881 -4 881 1 0 3 -28 19 -62 35
-222 105 -459 296 -625 504 -51 64 -183 269 -183 284 0 3 -8 19 -19 37 -19 30
-19 26 -19 -415z"/>
</g>
</svg>
