<?xml version="1.0" encoding="utf-8"?>
<svg xmlns="http://www.w3.org/2000/svg"
	xmlns:xlink="http://www.w3.org/1999/xlink"
	width="448px" height="308px" viewBox="0 0 448 308">
<path fillRule="evenodd" d="M 392.96 304.59C 410.23 220.23 360.34 193.39 359.98 165.49 359.43 122.94 448 153.74 448 88.57 448 89.87 444.05 86.28 438.29 91.81 430.84 98.96 376.22 93.54 370.29 76.69 349 16.2 308.77-0 277.47-0 246.18-0 191.13 24.91 191.13 75.61 191.13 124.92 212.18 144.73 231.07 155.54 238.19 159.61 231.97 167.24 233.22 168.5 227.19 170.49 223.3 171.61 217.83 173.7 117.25 212.32 70.46 144.3 60.54 138.25 57.06 136.13 52.67 118.52 40.03 125.29-33.02 217.29 16.29 302.43 16.29 302.43 130.66 312.44 357.01 306.22 392.96 304.59Z" fill="rgb(255,255,255)"/></svg>