<svg width="80" height="80" xmlns="http://www.w3.org/2000/svg" xmlns:svg="http://www.w3.org/2000/svg" preserveAspectRatio="xMidYMid meet">
 <title>Instagram icon</title>

 <metadata id="metadata4">Created by potrace 1.12, written by Peter Selinger 2001-2015image/svg+xmlInstagram icon</metadata>
 <g>
  <title>Layer 1</title>
  <g fill="#000000" id="g6" transform="matrix(0.01880253,0,0,-0.01877464,-8.09169,88.053468) ">
   <path fill="#ffffff" id="path10" d="m1288,4123l-3,-508l-48,-3c-27,-2 -55,2 -63,9c-12,10 -14,90 -14,500c0,555 10,502 -90,471l-55,-18l-5,-479l-5,-480l-53,-3c-31,-2 -60,2 -68,9c-12,10 -14,82 -14,435c0,390 -1,424 -17,424c-9,0 -60,-44 -114,-98c-86,-87 -103,-111 -147,-203c-84,-172 -85,-176 -89,-571l-5,-348l671,0c369,0 671,4 671,8c0,13 119,107 191,150c87,53 188,95 295,123c131,34 340,33 475,-3c160,-43 317,-124 436,-225l62,-53l666,0l667,0l-4,353c-4,329 -6,357 -27,427c-42,142 -93,224 -215,346c-122,121 -203,172 -346,216l-75,23l-1197,3l-1198,3l-2,-508l-3,-508l-48,-3c-27,-2 -55,2 -63,9c-12,10 -14,91 -14,510l0,499l-75,0l-75,0l-2,-507zm2872,122c17,-9 39,-33 50,-55c18,-36 20,-59 20,-277c0,-344 11,-333 -329,-333c-258,0 -289,7 -322,72c-19,37 -20,55 -17,289l3,251l37,34l38,34l245,0c201,0 251,-3 275,-15z"/>
   <path fill="#ffffff" id="path12" d="m2445,3353c-352,-49 -638,-331 -695,-686c-17,-103 -8,-270 20,-367c39,-137 92,-223 210,-340c117,-118 193,-167 312,-205c468,-148 948,112 1069,580c27,104 29,300 5,395c-44,171 -98,264 -231,395c-129,129 -240,187 -413,221c-69,13 -207,17 -277,7zm220,-248c78,-16 234,-90 280,-133c81,-75 147,-183 181,-298c25,-82 22,-218 -5,-304c-76,-241 -306,-413 -551,-413c-90,0 -159,18 -260,66c-195,92 -323,297 -323,517c-1,269 194,506 464,564c84,19 129,19 214,1z"/>
   <path fill="#ffffff" id="path14" d="m502,2153l3,-1008l23,-75c44,-143 95,-224 216,-346c124,-123 207,-174 352,-216l79,-23l1385,0l1385,0l79,23c159,46 270,115 389,242c83,88 151,206 189,330l23,75l3,1003l3,1002l-616,0c-536,0 -615,-2 -615,-15c0,-8 16,-40 36,-70c189,-297 208,-678 50,-994c-162,-322 -460,-529 -823,-571c-292,-34 -630,92 -840,314c-84,88 -131,158 -193,289c-73,151 -94,249 -94,427c0,117 4,162 22,234c26,105 74,219 125,299c20,32 37,64 37,72c0,13 -78,15 -610,15l-611,0l3,-1007z"/>
  </g>
 </g>
</svg>